<svg width="30" height="30" viewBox="0 0 30 30" fill="none" xmlns="http://www.w3.org/2000/svg">
<g clip-path="url(#clip0_124_2018)">
<path d="M23.7732 25.0073V27.5667C23.7732 27.806 23.5792 28 23.34 28C23.1007 28 22.9067 27.806 22.9067 27.5667V25.0073C22.9067 23.0145 21.2941 21.4018 19.3011 21.4018C18.3581 21.4018 17.5026 20.9214 17.0124 20.1167C16.8879 19.9124 16.9526 19.6458 17.157 19.5213C17.3614 19.3968 17.628 19.4616 17.7525 19.666C18.084 20.2103 18.6629 20.5353 19.3011 20.5353C21.7728 20.5352 23.7732 22.5354 23.7732 25.0073ZM16.2122 20.6641C16.2632 20.8979 16.115 21.1287 15.8812 21.1797C14.7409 21.4281 13.5812 21.1794 12.6578 20.5492C11.7437 21.5287 10.536 21.4018 10.6977 21.4018C8.7049 21.4018 7.09214 23.0143 7.09214 25.0073V27.5667C7.09214 27.806 6.89814 28 6.65886 28C6.41959 28 6.22559 27.806 6.22559 27.5667V25.0073C6.22559 22.5357 8.22564 20.5353 10.6976 20.5353C11.6975 20.5353 12.5081 19.7297 12.5081 18.7295V18.6154C10.6169 17.7111 9.28945 15.8108 9.20853 13.5979C8.43026 13.4108 7.85037 12.7142 7.85037 11.8854V9.6392C7.8267 8.53976 7.98994 5.78613 9.99769 3.85079C12.4768 1.46094 16.4526 1.61275 19.376 3.02009C19.6609 3.15738 19.7042 3.54235 19.4676 3.74171C20.9486 4.10296 22.2257 5.01338 23.0461 6.31635C23.0885 6.38345 23.166 6.48879 23.1458 6.65685C23.1332 6.76143 23.1021 6.84993 23.0215 6.93171C22.4934 7.46724 22.2027 8.17689 22.2027 8.92998V11.8855C22.2027 12.1247 22.0087 12.3187 21.7694 12.3187C21.5301 12.3187 21.3361 12.1247 21.3361 11.8855V8.92998C21.3361 8.06142 21.6328 7.23701 22.1778 6.57474C21.3472 5.3867 20.0511 4.62262 18.5853 4.46566L17.8238 4.3841C17.3785 4.33644 17.2911 3.72297 17.705 3.55264L18.0513 3.41004C13.5406 1.83752 8.71687 3.58476 8.71687 9.63449V11.8854C8.71687 12.2292 8.91488 12.528 9.20431 12.678V9.86916C9.20431 8.19682 10.5649 6.83623 12.2372 6.83623H17.7615C19.4339 6.83623 20.7945 8.19671 20.7945 9.869V13.4166C20.7945 17.1847 17.1123 20.0468 13.3654 18.9438C13.341 19.2529 13.2641 19.5512 13.1387 19.8285C13.8676 20.3291 14.788 20.531 15.6966 20.333C15.9304 20.282 16.1613 20.4303 16.2122 20.6641ZM14.9994 18.3122C17.717 18.3122 19.9279 16.1013 19.9279 13.3837V9.869C19.9279 8.67456 18.9561 7.70278 17.7615 7.70278H12.2372C11.0427 7.70278 10.0709 8.67462 10.0709 9.86916V13.3837C10.0709 16.1013 12.2818 18.3122 14.9994 18.3122ZM19.3863 25.7795H18.0865C17.8472 25.7795 17.6532 25.9735 17.6532 26.2127C17.6532 26.452 17.8472 26.646 18.0865 26.646H19.3863C19.6256 26.646 19.8196 26.452 19.8196 26.2127C19.8196 25.9735 19.6256 25.7795 19.3863 25.7795Z" fill="#1D1D1B"/>
</g>
<defs>
<clipPath id="clip0_124_2018">
<rect width="26" height="26" fill="white" transform="translate(2 2)"/>
</clipPath>
</defs>
</svg>
