<svg width="30" height="30" viewBox="0 0 30 30" fill="none" xmlns="http://www.w3.org/2000/svg">
<g clip-path="url(#clip0_125_28)">
<path d="M10.8024 17.4991C11.0093 17.4995 11.1851 17.3479 11.2152 17.1431C11.2453 16.9384 11.1206 16.7427 10.9224 16.6833C10.0617 16.4251 9.12712 15.4802 8.35752 14.0919C8.24604 13.8905 7.99255 13.8177 7.79115 13.9292C7.58975 14.0407 7.51692 14.2944 7.6284 14.4955C8.50338 16.0726 9.61577 17.1622 10.6824 17.4812C10.7212 17.493 10.7617 17.4991 10.8024 17.4991Z" fill="#1D1D1B"/>
<path d="M15.1049 8.23975C15.3626 8.82015 15.4971 9.44775 15.5001 10.0829C15.5001 10.313 15.6867 10.4995 15.9168 10.4995C16.1469 10.4995 16.3334 10.313 16.3334 10.0829C16.3306 9.33363 16.1725 8.59312 15.8694 7.90794C15.4833 7.00448 14.8677 6.21739 14.0836 5.62478C13.8995 5.48685 13.6385 5.52408 13.5004 5.70819C13.3622 5.8923 13.3997 6.15351 13.5836 6.29144C14.2521 6.79698 14.7763 7.46873 15.1049 8.23975Z" fill="#1D1D1B"/>
<path d="M11.3346 5.49978C11.7144 5.5012 12.0914 5.56529 12.4505 5.68938C12.6683 5.76343 12.9051 5.64687 12.9792 5.42898C13.0532 5.2111 12.9367 4.9743 12.7188 4.90025C12.2733 4.74686 11.8058 4.66793 11.3346 4.6665C11.1045 4.6665 10.918 4.85306 10.918 5.08314C10.918 5.31323 11.1045 5.49978 11.3346 5.49978Z" fill="#1D1D1B"/>
<path d="M19.2564 20.0175C18.3957 19.7591 17.4611 18.8142 16.6915 17.4259C16.58 17.2245 16.3265 17.1517 16.1251 17.2632C15.9237 17.3747 15.8509 17.6283 15.9624 17.8297C16.8374 19.4066 17.9498 20.4962 19.0164 20.8152C19.1598 20.8609 19.3166 20.8257 19.4267 20.7232C19.5368 20.6207 19.5829 20.4667 19.5477 20.3206C19.5125 20.1743 19.4011 20.0584 19.2564 20.0175Z" fill="#1D1D1B"/>
<path d="M22.4166 8.95779C22.2325 8.81986 21.9715 8.85708 21.8334 9.04119C21.6952 9.2253 21.7327 9.48652 21.9166 9.62445C22.5843 10.1296 23.1085 10.8003 23.4371 11.5701C23.6954 12.1513 23.8303 12.7799 23.8332 13.4159C23.8332 13.646 24.0197 13.8325 24.2498 13.8325C24.4799 13.8325 24.6664 13.646 24.6664 13.4159C24.6636 12.6666 24.5055 11.9261 24.2024 11.241C23.8163 10.3375 23.2007 9.5504 22.4166 8.95779Z" fill="#1D1D1B"/>
<path d="M21.0508 8.23326C20.6053 8.07987 20.1378 8.00094 19.6666 7.99951C19.4366 7.99951 19.25 8.18606 19.25 8.41615C19.25 8.64623 19.4366 8.83278 19.6666 8.83278C20.0465 8.83421 20.4234 8.89829 20.7825 9.02239C21.0004 9.09644 21.2372 8.97987 21.3112 8.76199C21.3853 8.54411 21.2687 8.30731 21.0508 8.23326Z" fill="#1D1D1B"/>
<path d="M19.6612 6.3331H19.6545C18.8141 6.33697 17.9841 6.51782 17.2184 6.86387C16.1473 4.56524 13.8692 3.06937 11.3342 3C7.78319 3 4.66797 6.30971 4.66797 10.0828C4.66797 13.3464 6.9078 17.7823 9.85051 18.9455L9.67352 20.0138C9.65338 20.1346 9.68756 20.2581 9.76669 20.3515C9.84563 20.4449 9.96199 20.4988 10.0843 20.4988H10.756L10.4921 21.2904C10.2049 22.1446 10.3312 23.0841 10.8343 23.8319L11.1438 24.2959C11.5022 24.8301 11.5921 25.5007 11.3871 26.1106L10.9405 27.4512C10.8677 27.6699 10.9861 27.9059 11.2046 27.9787C11.4233 28.0514 11.6595 27.9332 11.7321 27.7145L12.1762 26.3734C12.4636 25.5192 12.3373 24.5797 11.8342 23.8319L11.5246 23.3678C11.1657 22.8336 11.0756 22.1631 11.2809 21.5532L11.6342 20.4988H12.5841C12.7066 20.4988 12.8227 20.4449 12.9019 20.3515C12.981 20.2581 13.015 20.1346 12.995 20.0138L12.8178 18.9464C13.326 18.7423 13.8002 18.4624 14.2244 18.1159C15.0994 19.8722 16.4801 21.6095 18.1824 22.2845L18.0063 23.3469C17.9861 23.4677 18.0203 23.5912 18.0994 23.6846C18.1784 23.778 18.2947 23.8319 18.417 23.8319H19.0888L18.8249 24.6235C18.5376 25.4777 18.664 26.4172 19.1671 27.165L19.4761 27.6282C19.5095 27.6783 19.5404 27.7299 19.5691 27.782C19.6421 27.9161 19.7827 27.9993 19.9353 27.9991C20.0048 27.9991 20.0732 27.9814 20.134 27.9478C20.336 27.8377 20.4107 27.5849 20.3006 27.3829C20.2589 27.3096 20.2174 27.2374 20.1698 27.1666L19.8604 26.7026C19.5013 26.1686 19.4114 25.4978 19.6165 24.8881L19.967 23.8319H20.9168C21.0393 23.8319 21.1555 23.778 21.2346 23.6846C21.3137 23.5912 21.3477 23.4677 21.3278 23.3469L21.1526 22.2921C22.346 21.8262 23.4814 20.8058 24.4442 19.303C25.5938 17.5424 26.2465 15.504 26.3331 13.4031C26.3244 9.63447 23.2083 6.3331 19.6612 6.3331ZM5.50124 10.0828C5.50124 6.7534 8.22688 3.83328 11.3342 3.83328C13.5712 3.83328 15.6515 5.3027 16.6351 7.57834C16.9834 8.36767 17.1645 9.22027 17.1671 10.0828C17.1663 10.3894 17.1461 10.6954 17.1067 10.9995C17.0585 11.3633 16.9889 11.724 16.8984 12.0798C16.4329 13.9909 15.459 15.7404 14.0804 17.1431C13.5602 17.6615 12.9261 18.0508 12.2287 18.2805C11.7941 18.4154 11.3346 18.4502 10.8846 18.3822C10.733 18.3592 10.5835 18.3251 10.4368 18.2801C7.70324 17.4574 5.50124 13.1242 5.50124 10.0828ZM10.576 19.6655L10.6551 19.1876C10.6797 19.1921 10.7039 19.1935 10.7283 19.1976C10.753 19.2019 10.7892 19.2055 10.8197 19.2096C10.9879 19.2342 11.1576 19.2472 11.3277 19.2489H11.3409C11.5108 19.2474 11.6802 19.2344 11.8485 19.2102C11.8788 19.2059 11.9097 19.2031 11.94 19.198C11.9705 19.1931 11.9888 19.1927 12.0134 19.188L12.0926 19.6655H10.576ZM20.4253 22.9986H18.9087L18.9879 22.5207C19.0348 22.5291 19.082 22.5331 19.1286 22.5399C19.1679 22.5454 19.2065 22.551 19.2458 22.5557C19.3856 22.572 19.5261 22.5807 19.6669 22.582H19.6783C19.9017 22.5814 20.1249 22.5612 20.3448 22.522L20.4253 22.9986ZM23.7442 18.853C22.8039 20.3187 21.671 21.2851 20.5391 21.6179C20.408 21.6569 20.2746 21.6873 20.1395 21.7086L20.0836 21.7166C19.8059 21.756 19.5239 21.756 19.2462 21.7166C19.2112 21.7117 19.1775 21.7033 19.1429 21.697C19.0289 21.6777 18.916 21.6521 18.805 21.6203C17.1138 21.1361 15.7148 19.3231 14.8695 17.5374C14.8943 17.5123 14.9181 17.4841 14.9423 17.4586C14.9944 17.4039 15.0457 17.3482 15.0969 17.292C15.1578 17.2247 15.218 17.1563 15.2778 17.0865C15.3284 17.0269 15.3781 16.9665 15.4277 16.9049C15.4861 16.8333 15.5435 16.7602 15.6002 16.6858C15.6491 16.6215 15.6975 16.5566 15.7451 16.4907C15.8008 16.415 15.8549 16.3381 15.9076 16.2604C15.9548 16.192 16.001 16.1233 16.0468 16.0521C16.0989 15.9729 16.1497 15.8924 16.2002 15.8112C16.2447 15.7396 16.2889 15.6674 16.3322 15.5941C16.381 15.5107 16.4284 15.4275 16.4752 15.3441C16.5167 15.2686 16.5584 15.1938 16.6001 15.1179C16.6455 15.0345 16.6892 14.947 16.7326 14.8614C16.7718 14.7838 16.8105 14.7067 16.8481 14.6288C16.8896 14.5409 16.9313 14.4524 16.9706 14.3642C17.006 14.2854 17.0418 14.2071 17.076 14.128C17.1142 14.0385 17.1504 13.9479 17.1872 13.8576C17.2188 13.7781 17.2513 13.6989 17.2816 13.6192C17.3162 13.5276 17.3484 13.4359 17.3809 13.3439C17.4092 13.2644 17.4379 13.1846 17.4643 13.1047C17.495 13.0113 17.5229 12.9185 17.5514 12.8248C17.5754 12.746 17.6 12.6673 17.6226 12.5886C17.6492 12.494 17.6726 12.3994 17.6966 12.3044C17.7164 12.2273 17.7383 12.1502 17.755 12.0731C17.7776 11.976 17.7967 11.8802 17.8159 11.784C17.8309 11.7097 17.8476 11.6353 17.8608 11.5614C17.8787 11.4607 17.8926 11.3614 17.9072 11.262C17.9172 11.1936 17.9296 11.1248 17.9379 11.0569C17.9518 10.947 17.9605 10.8386 17.9697 10.7304C17.9745 10.6744 17.9817 10.6179 17.9855 10.5636C17.9959 10.4012 18.0016 10.2403 18.0016 10.0824C18.0016 9.85621 17.9884 9.6304 17.9662 9.4058C17.9587 9.33155 17.9454 9.25791 17.9359 9.18406C17.9159 9.03331 17.8942 8.88297 17.8647 8.73345C17.8476 8.64719 17.8258 8.56134 17.8055 8.47549C17.7725 8.33797 17.7371 8.20126 17.6962 8.06516C17.6696 7.97748 17.6409 7.89 17.6108 7.80293C17.5896 7.74088 17.5734 7.67802 17.5504 7.61679C18.2124 7.32017 18.9295 7.16658 19.6549 7.16638H19.6608C22.7642 7.16638 25.4937 10.08 25.4999 13.4043C25.4154 15.3453 24.809 17.2277 23.7442 18.853Z" fill="#1D1D1B"/>
</g>
<defs>
<clipPath id="clip0_125_28">
<rect width="25" height="25" fill="white" transform="translate(3 3)"/>
</clipPath>
</defs>
</svg>
