<svg width="30" height="30" viewBox="0 0 30 30" fill="none" xmlns="http://www.w3.org/2000/svg">
<g clip-path="url(#clip0_125_1017)">
<path d="M27.8147 13.5111L27.8147 13.5111L24.6224 11.3947V4.32079C24.6224 4.09212 24.437 3.90674 24.2084 3.90674H6.79107C6.56241 3.90674 6.37702 4.09212 6.37702 4.32079V11.3952L3.18528 13.5111L3.18533 13.5112C3.0737 13.5853 3 13.7121 3 13.8562V26.6786C3 26.9072 3.18539 27.0926 3.41405 27.0926H27.5859C27.8146 27.0926 28 26.9072 28 26.6786V13.8562C28 13.7121 27.9263 13.5853 27.8147 13.5111ZM6.37702 14.9592L5.07827 14.2702H6.37702V14.9592ZM3.82811 14.5445L13.35 19.5954L3.82811 25.9071V14.5445ZM15.4998 19.1637L26.2121 26.2645H4.78766L15.4998 19.1637ZM17.6499 19.5954L27.1718 14.5445V25.9073L17.6499 19.5954ZM24.6224 14.2702H25.9218L24.6224 14.9594V14.2702ZM26.2121 13.4421H24.6224V12.3882L26.2121 13.4421ZM23.7943 4.73485V15.3987L16.8643 19.0747L15.7286 18.3219C15.5899 18.23 15.4097 18.23 15.2711 18.3219L14.1354 19.0746L7.20513 15.3984V4.73485H23.7943ZM6.37702 13.4421H4.78805L6.37702 12.3888V13.4421Z" fill="#1D1D1B"/>
<path d="M15.5 14.7956H18.7988C19.0275 14.7956 19.2129 14.6102 19.2129 14.3815C19.2129 14.1529 19.0275 13.9675 18.7988 13.9675H15.5C13.9093 13.9675 12.6152 12.6734 12.6152 11.0827V10.9605C12.6152 9.36983 13.9093 8.07572 15.5 8.07572C17.0907 8.07572 18.3848 9.36983 18.3848 10.9605V11.266C18.3848 11.6103 18.1047 11.8905 17.7603 11.8905C17.4159 11.8905 17.1358 11.6104 17.1358 11.266V10.6856C17.1358 9.69942 16.3335 8.89704 15.3472 8.89704C14.361 8.89704 13.5587 9.69936 13.5587 10.6856C13.5587 11.6719 14.361 12.4742 15.3472 12.4742C15.7982 12.4742 16.2105 12.3061 16.5254 12.0297C16.7817 12.4428 17.2393 12.7185 17.7603 12.7185C18.5612 12.7185 19.2129 12.0669 19.2129 11.2659V10.9605C19.2129 8.91316 17.5473 7.24756 15.5 7.24756C13.4527 7.24756 11.7871 8.91316 11.7871 10.9605V11.0826C11.7871 13.13 13.4527 14.7956 15.5 14.7956ZM15.3472 11.6461C14.8176 11.6461 14.3868 11.2152 14.3868 10.6856C14.3868 10.156 14.8177 9.72515 15.3472 9.72515C15.8768 9.72515 16.3077 10.156 16.3077 10.6856C16.3077 11.2152 15.8768 11.6461 15.3472 11.6461Z" fill="#1D1D1B"/>
</g>
<defs>
<clipPath id="clip0_125_1017">
<rect width="25" height="25" fill="white" transform="translate(3 3)"/>
</clipPath>
</defs>
</svg>
