<svg width="30" height="30" viewBox="0 0 30 30" fill="none" xmlns="http://www.w3.org/2000/svg">
<path d="M14.9899 8.02384C14.2763 8.02384 13.5787 7.81222 12.9854 7.41576C12.392 7.0193 11.9296 6.45579 11.6565 5.79649C11.3834 5.13719 11.3119 4.41172 11.4512 3.71182C11.5904 3.01192 11.934 2.36901 12.4386 1.86441C12.9432 1.35981 13.5861 1.01617 14.286 0.876948C14.9859 0.737728 15.7114 0.809181 16.3707 1.08227C17.03 1.35536 17.5935 1.81782 17.99 2.41117C18.3864 3.00452 18.598 3.70211 18.598 4.41573C18.5974 5.37246 18.2171 6.28982 17.5405 6.96633C16.864 7.64285 15.9467 8.02319 14.9899 8.02384ZM14.9899 1.62167C14.4367 1.62167 13.8959 1.78573 13.4358 2.0931C12.9758 2.40047 12.6173 2.83735 12.4056 3.34849C12.1939 3.85963 12.1385 4.42207 12.2464 4.9647C12.3543 5.50732 12.6207 6.00575 13.012 6.39696C13.4032 6.78817 13.9016 7.05458 14.4442 7.16252C14.9868 7.27045 15.5493 7.21506 16.0604 7.00334C16.5716 6.79162 17.0084 6.43308 17.3158 5.97307C17.6232 5.51305 17.7872 4.97222 17.7872 4.41897C17.7872 3.67708 17.4925 2.96558 16.9679 2.44098C16.4433 1.91639 15.7318 1.62167 14.9899 1.62167Z" fill="#1D1D1B"/>
<path d="M19.2855 20.4325H18.4901C18.3826 20.4325 18.2795 20.3898 18.2035 20.3138C18.1274 20.2377 18.0847 20.1346 18.0847 20.0271C18.0847 19.9196 18.1274 19.8165 18.2035 19.7404C18.2795 19.6644 18.3826 19.6217 18.4901 19.6217H19.2851C19.7008 19.6213 20.0993 19.456 20.3932 19.1621C20.6871 18.8681 20.8524 18.4696 20.8528 18.054V11.6758C20.8522 11.1988 20.6625 10.7415 20.3253 10.4041C19.9882 10.0667 19.531 9.87672 19.054 9.87575H10.9459C10.4687 9.87629 10.0111 10.0661 9.67359 10.4035C9.33608 10.741 9.14618 11.1985 9.14553 11.6758V18.056C9.1465 18.4715 9.31221 18.8697 9.60632 19.1632C9.90043 19.4567 10.2989 19.6216 10.7145 19.6217H11.4807C11.5882 19.6217 11.6913 19.6644 11.7673 19.7404C11.8434 19.8165 11.8861 19.9196 11.8861 20.0271C11.8861 20.1346 11.8434 20.2377 11.7673 20.3138C11.6913 20.3898 11.5882 20.4325 11.4807 20.4325H10.7145C10.0838 20.4319 9.47922 20.1811 9.0333 19.7351C8.58738 19.2892 8.33658 18.6846 8.33594 18.054V11.6758C8.3368 10.9837 8.61203 10.3203 9.10129 9.83086C9.59055 9.34145 10.2539 9.06601 10.9459 9.06494H19.054C19.7463 9.06569 20.41 9.34099 20.8995 9.83044C21.389 10.3199 21.6644 10.9835 21.6653 11.6758V18.056C21.6641 18.6865 21.4129 19.2908 20.9668 19.7363C20.5206 20.1818 19.916 20.4322 19.2855 20.4325Z" fill="#1D1D1B"/>
<path d="M16.7381 29.1888C16.1698 29.1882 15.625 28.9621 15.2232 28.5603C14.8214 28.1585 14.5954 27.6137 14.5947 27.0454V20.2901C14.5947 20.1826 14.6374 20.0795 14.7135 20.0035C14.7895 19.9275 14.8926 19.8847 15.0001 19.8847C15.1077 19.8847 15.2108 19.9275 15.2868 20.0035C15.3628 20.0795 15.4055 20.1826 15.4055 20.2901V27.0454C15.4055 27.3988 15.5459 27.7378 15.7958 27.9877C16.0457 28.2376 16.3847 28.378 16.7381 28.378C17.0915 28.378 17.4305 28.2376 17.6804 27.9877C17.9303 27.7378 18.0707 27.3988 18.0707 27.0454V14.2399C18.0707 14.1324 18.1134 14.0292 18.1894 13.9532C18.2655 13.8772 18.3686 13.8345 18.4761 13.8345C18.5836 13.8345 18.6867 13.8772 18.7628 13.9532C18.8388 14.0292 18.8815 14.1324 18.8815 14.2399V27.0454C18.8809 27.6137 18.6548 28.1585 18.253 28.5603C17.8512 28.9621 17.3064 29.1882 16.7381 29.1888Z" fill="#1D1D1B"/>
<path d="M13.2625 29.1888C12.6943 29.1882 12.1495 28.9621 11.7476 28.5603C11.3458 28.1585 11.1198 27.6137 11.1191 27.0454V14.2399C11.1191 14.1324 11.1619 14.0292 11.2379 13.9532C11.3139 13.8772 11.417 13.8345 11.5245 13.8345C11.6321 13.8345 11.7352 13.8772 11.8112 13.9532C11.8872 14.0292 11.93 14.1324 11.93 14.2399V27.0454C11.93 27.3988 12.0703 27.7378 12.3203 27.9877C12.5702 28.2376 12.9091 28.378 13.2625 28.378C13.6159 28.378 13.9549 28.2376 14.2048 27.9877C14.4547 27.7378 14.5951 27.3988 14.5951 27.0454V20.2901C14.5951 20.1826 14.6378 20.0795 14.7138 20.0035C14.7899 19.9275 14.893 19.8847 15.0005 19.8847C15.108 19.8847 15.2111 19.9275 15.2872 20.0035C15.3632 20.0795 15.4059 20.1826 15.4059 20.2901V27.0454C15.4053 27.6137 15.1792 28.1585 14.7774 28.5603C14.3756 28.9621 13.8308 29.1882 13.2625 29.1888Z" fill="#1D1D1B"/>
</svg>
