<svg width="30" height="30" viewBox="0 0 30 30" fill="none" xmlns="http://www.w3.org/2000/svg">
<g clip-path="url(#clip0_125_25)">
<path d="M26.3965 21.7434L21.7412 18.6389C21.1504 18.2481 20.3585 18.3767 19.9218 18.9344L18.5657 20.6779C18.3914 20.9077 18.0747 20.9743 17.8226 20.8343L17.5646 20.6921C16.7095 20.226 15.6456 19.6458 13.5019 17.5013C11.3582 15.3569 10.7768 14.2921 10.3107 13.4386L10.1693 13.1807C10.0273 12.9286 10.0927 12.6105 10.3226 12.4348L12.0649 11.0792C12.6224 10.6424 12.7512 9.85069 12.3608 9.25974L9.25628 4.60446C8.85622 4.00269 8.05358 3.82204 7.43425 4.19434L5.48758 5.36371C4.87592 5.7233 4.42717 6.30567 4.23543 6.98878C3.53444 9.54293 4.06179 13.951 10.5553 20.4452C15.7207 25.6103 19.5661 26.9993 22.2092 26.9993C22.8175 27.0019 23.4234 26.9227 24.0106 26.764C24.6939 26.5724 25.2763 26.1236 25.6357 25.5118L26.8062 23.5663C27.1791 22.9468 26.9985 22.1437 26.3965 21.7434ZM26.1458 23.173L24.9779 25.1197C24.7199 25.5613 24.301 25.886 23.8089 26.0258C21.451 26.6731 17.3316 26.1369 11.0976 19.9029C4.86357 13.6689 4.32742 9.54985 4.97478 7.19158C5.11474 6.69895 5.43983 6.27948 5.88198 6.02104L7.82865 4.8532C8.09738 4.69151 8.44574 4.76988 8.61934 5.03102L10.3058 7.56293L11.7212 9.6859C11.8907 9.94223 11.835 10.2858 11.5932 10.4755L9.85046 11.8311C9.3201 12.2366 9.16865 12.9704 9.49518 13.5528L9.63357 13.8042C10.1234 14.7026 10.7324 15.8202 12.9558 18.0433C15.1792 20.2663 16.2965 20.8753 17.1945 21.3651L17.4463 21.5039C18.0286 21.8303 18.7624 21.6789 19.1679 21.1486L20.5236 19.4058C20.7133 19.1641 21.0567 19.1085 21.3131 19.2778L25.968 22.3823C26.2293 22.5558 26.3077 22.9044 26.1458 23.173Z" fill="#1D1D1B"/>
</g>
<defs>
<clipPath id="clip0_125_25">
<rect width="23" height="23" fill="white" transform="translate(4 4)"/>
</clipPath>
</defs>
</svg>
