<svg width="30" height="30" viewBox="0 0 30 30" fill="none" xmlns="http://www.w3.org/2000/svg">
<path d="M29.5554 15.5932H28.9816C28.5009 15.5932 28.1099 15.2022 28.1099 14.7215C28.1099 14.2408 28.5008 13.8497 28.9815 13.8497H29.5554C29.8007 13.8497 29.9994 13.651 29.9994 13.4056V10.7414C29.9994 10.4961 29.8007 10.2973 29.5554 10.2973H28.9815C28.5008 10.2973 28.1098 9.90625 28.1098 9.42555V9.26407L28.7612 8.66741C28.9378 8.50563 28.9543 8.23294 28.7985 8.051L27.065 6.02782C26.9884 5.93835 26.8793 5.88304 26.7619 5.87402C26.6442 5.86417 26.5282 5.90296 26.4389 5.97954L26.0031 6.35296C25.6381 6.66567 25.0866 6.62314 24.7739 6.25816C24.6224 6.08138 24.5488 5.85609 24.5667 5.62388C24.5846 5.39173 24.6918 5.18044 24.8687 5.02892L25.3044 4.6555C25.4907 4.49595 25.5123 4.21558 25.3527 4.02937L23.6192 2.00625C23.4597 1.8201 23.1793 1.79836 22.993 1.95797L22.5572 2.33133C22.3804 2.48285 22.1552 2.55656 21.923 2.53851C21.6909 2.52064 21.4796 2.41342 21.328 2.23652L20.7467 1.55795C20.67 1.46848 20.561 1.41317 20.4436 1.40414C20.3257 1.39512 20.2099 1.43297 20.1205 1.50967L12.4432 8.08786H11.1755C10.9302 8.08786 10.7314 8.28661 10.7314 8.53194C10.7314 8.77727 10.9302 8.97602 11.1755 8.97602H27.2217V9.42555C27.2217 10.396 28.0112 11.1855 28.9816 11.1855H29.1113V12.9616H28.9816C28.0112 12.9616 27.2217 13.7511 27.2217 14.7215C27.2217 15.6919 28.0112 16.4814 28.9816 16.4814H29.1113V18.2575H28.9816C28.0112 18.2575 27.2217 19.0469 27.2217 20.0173V21.0241H24.1511C23.9058 21.0241 23.7071 21.2229 23.7071 21.4682C23.7071 21.7135 23.9058 21.9123 24.1511 21.9123H27.6658C27.9111 21.9123 28.1099 21.7135 28.1099 21.4682V20.0173C28.1099 19.5367 28.5009 19.1457 28.9816 19.1457H29.5554C29.8007 19.1457 29.9995 18.9469 29.9995 18.7016V16.0373C29.9995 15.792 29.8007 15.5932 29.5554 15.5932ZM13.8083 8.08786L20.3611 2.47318L20.6536 2.81455C20.9594 3.17156 21.386 3.38806 21.8547 3.42416C22.3233 3.46019 22.7781 3.31177 23.1351 3.00592L23.2337 2.92148L24.3893 4.27013L24.2908 4.35462C23.5539 4.98597 23.468 6.09919 24.0995 6.83612C24.7309 7.573 25.8442 7.65884 26.581 7.02743L26.6795 6.94294L27.6606 8.08786H13.8083Z" fill="#1D1D1B"/>
<path d="M20.2538 21.0236H2.77787V20.5742C2.77787 19.6037 1.98838 18.8143 1.01795 18.8143H0.888162V17.0382H1.01795C1.98838 17.0382 2.77787 16.2487 2.77787 15.2782C2.77787 14.3078 1.98838 13.5183 1.01795 13.5183H0.888162V11.7422H1.01795C1.98838 11.7422 2.77787 10.9527 2.77787 9.98232V8.97556H7.8458C8.09114 8.97556 8.28989 8.77681 8.28989 8.53148C8.28989 8.28615 8.09114 8.0874 7.8458 8.0874H2.33378C2.08845 8.0874 1.8897 8.28615 1.8897 8.53148V9.98232C1.8897 10.463 1.49865 10.8541 1.01795 10.8541H0.444081C0.19875 10.8541 0 11.0528 0 11.2982V13.9624C0 14.2077 0.19875 14.4065 0.444081 14.4065H1.01795C1.49859 14.4065 1.8897 14.7975 1.8897 15.2782C1.8897 15.759 1.49865 16.15 1.01795 16.15H0.444081C0.19875 16.15 0 16.3488 0 16.5941V19.2583C0 19.5037 0.19875 19.7024 0.444081 19.7024H1.01795C1.49859 19.7024 1.8897 20.0935 1.8897 20.5742V20.8143L1.26228 21.3119C1.16765 21.3869 1.10771 21.4971 1.09611 21.6172C1.08457 21.7373 1.12242 21.8571 1.20099 21.9487L2.93443 23.9719C3.01107 24.0614 3.12011 24.1167 3.23753 24.1257C3.35495 24.1355 3.4712 24.0968 3.56056 24.0202L3.99638 23.6468C4.17321 23.4952 4.39845 23.4211 4.6306 23.4396C4.86274 23.4574 5.07403 23.5647 5.22556 23.7416C5.53833 24.1066 5.49579 24.658 5.13075 24.9708L4.69499 25.3442C4.50872 25.5037 4.4871 25.7841 4.64671 25.9703L6.38014 27.9935C6.53969 28.1797 6.82007 28.2015 7.00628 28.0418L7.4421 27.6684C7.61887 27.5169 7.84481 27.4431 8.07631 27.4612C8.30846 27.4791 8.51975 27.5863 8.67127 27.7632L9.25264 28.4417C9.34047 28.5442 9.46492 28.5969 9.59008 28.5969C9.69233 28.5969 9.79504 28.5618 9.87877 28.49L17.5426 21.9235C17.5469 21.9198 17.5506 21.9158 17.5547 21.912H20.2536C20.4989 21.912 20.6977 21.7132 20.6977 21.4679C20.6977 21.2226 20.4992 21.0236 20.2538 21.0236ZM9.63836 27.5265L9.34592 27.1852C9.04012 26.8282 8.61356 26.6117 8.14481 26.5756C7.67612 26.5392 7.22143 26.688 6.86442 26.9938L6.76581 27.0782L5.61017 25.7295L5.70872 25.6451C6.06567 25.3392 6.28223 24.9127 6.31833 24.4439C6.35442 23.9752 6.20595 23.5205 5.90009 23.1635C5.59429 22.8065 5.16772 22.59 4.69898 22.5539C4.2304 22.5184 3.7756 22.6664 3.41859 22.9722L3.32003 23.0567L2.33894 21.9118H16.1912L9.63836 27.5265Z" fill="#1D1D1B"/>
<path d="M25.0718 10.1694H12.4219C12.1766 10.1694 11.9778 10.3682 11.9778 10.6135C11.9778 10.8588 12.1766 11.0576 12.4219 11.0576H24.6277V18.942H5.37156V11.0576H9.02792C9.27325 11.0576 9.472 10.8588 9.472 10.6135C9.472 10.3682 9.27325 10.1694 9.02792 10.1694H4.92748C4.68215 10.1694 4.4834 10.3682 4.4834 10.6135V19.3861C4.4834 19.6314 4.68215 19.8301 4.92748 19.8301H25.0719C25.3172 19.8301 25.5159 19.6314 25.5159 19.3861V10.6135C25.5159 10.3682 25.3171 10.1694 25.0718 10.1694Z" fill="#1D1D1B"/>
<path d="M9.18033 13.0562H6.72795C6.56559 13.0562 6.49023 13.2301 6.49023 13.3924C6.49023 13.5779 6.57719 13.7345 6.72795 13.7345H7.58025V17.0565C7.58025 17.2131 7.76582 17.2942 7.95707 17.2942C8.14264 17.2942 8.33395 17.2131 8.33395 17.0565V13.7345H9.18039C9.33115 13.7345 9.41811 13.5721 9.41811 13.3924C9.41805 13.2301 9.3427 13.0562 9.18033 13.0562Z" fill="#1D1D1B"/>
<path d="M10.2059 13.0562C10.0146 13.0562 9.8291 13.1257 9.8291 13.288V17.0565C9.8291 17.2131 10.0146 17.2942 10.2059 17.2942C10.3915 17.2942 10.5827 17.2131 10.5827 17.0565V13.288C10.5827 13.1257 10.3915 13.0562 10.2059 13.0562Z" fill="#1D1D1B"/>
<path d="M13.5748 15.8101C13.3777 15.8101 13.2153 15.8681 13.2037 16.0478C13.1863 16.2914 13.1399 16.6682 12.6124 16.6682C12.2123 16.6682 11.992 16.4537 11.992 16.0014V14.3839C11.992 13.9317 12.2123 13.7171 12.6008 13.7171C13.1515 13.7171 13.1921 14.1114 13.2037 14.2911C13.2095 14.465 13.3661 14.5288 13.5806 14.5288C13.8356 14.5288 13.9574 14.4592 13.9574 14.1577C13.9574 13.4851 13.3834 13.0562 12.5775 13.0562C11.847 13.0562 11.2383 13.4156 11.2383 14.3838V16.0014C11.2383 16.9696 11.8413 17.3291 12.5718 17.3291C13.3834 17.3291 13.9574 16.8826 13.9574 16.1811C13.9574 15.8854 13.8356 15.8101 13.5748 15.8101Z" fill="#1D1D1B"/>
<path d="M17.2961 16.8131L16.0321 14.8883L17.0699 13.5895C17.1104 13.5374 17.1162 13.4852 17.1162 13.4446C17.1162 13.2533 16.8727 13.0562 16.6814 13.0562C16.6003 13.0562 16.5307 13.0851 16.4728 13.1663L15.2204 14.8708V13.288C15.2204 13.1257 15.0292 13.0562 14.8436 13.0562C14.6523 13.0562 14.4668 13.1257 14.4668 13.288H14.4669V17.0565C14.4669 17.2131 14.6524 17.2942 14.8437 17.2942C15.0292 17.2942 15.2205 17.2131 15.2205 17.0565V15.9202L15.5336 15.526L16.6236 17.1783C16.6873 17.2826 16.7859 17.3232 16.8844 17.3232C17.1047 17.3232 17.3366 17.132 17.3366 16.9464C17.3366 16.9001 17.325 16.8537 17.2961 16.8131Z" fill="#1D1D1B"/>
<path d="M20.0614 16.6334H18.4206V15.4681H19.3019C19.4643 15.4681 19.5396 15.3115 19.5396 15.1781C19.5396 15.0216 19.4527 14.8766 19.3019 14.8766H18.4206V13.7171H20.0614C20.2122 13.7171 20.2991 13.5605 20.2991 13.3808C20.2991 13.2243 20.2237 13.0562 20.0614 13.0562H17.9975C17.8293 13.0562 17.667 13.1373 17.667 13.2939V17.0566C17.667 17.2132 17.8293 17.2943 17.9975 17.2943H20.0614C20.2238 17.2943 20.2991 17.1262 20.2991 16.9696C20.2991 16.79 20.2122 16.6334 20.0614 16.6334Z" fill="#1D1D1B"/>
<path d="M23.152 13.0562H20.6996C20.5373 13.0562 20.4619 13.2301 20.4619 13.3924C20.4619 13.5779 20.5489 13.7345 20.6996 13.7345H21.5519V17.0565C21.5519 17.2131 21.7375 17.2942 21.9287 17.2942C22.1143 17.2942 22.3056 17.2131 22.3056 17.0565V13.7345H23.1521C23.3028 13.7345 23.3898 13.5721 23.3898 13.3924C23.3897 13.2301 23.3144 13.0562 23.152 13.0562Z" fill="#1D1D1B"/>
</svg>
