<svg width="64" height="64" viewBox="0 0 64 64" fill="none" xmlns="http://www.w3.org/2000/svg">
<path d="M31.9786 17.1179C30.4562 17.1179 28.968 16.6664 27.7022 15.8206C26.4364 14.9748 25.4498 13.7727 24.8672 12.3662C24.2846 10.9597 24.1322 9.41203 24.4292 7.9189C24.7262 6.42577 25.4593 5.05424 26.5358 3.97776C27.6123 2.90127 28.9838 2.16817 30.4769 1.87117C31.9701 1.57417 33.5177 1.7266 34.9242 2.30919C36.3307 2.89178 37.5329 3.87836 38.3787 5.14418C39.2244 6.40999 39.6759 7.89819 39.6759 9.42057C39.6745 11.4616 38.8631 13.4186 37.4199 14.8619C35.9767 16.3051 34.0196 17.1165 31.9786 17.1179V17.1179ZM31.9786 3.45992C30.7983 3.45992 29.6446 3.80991 28.6632 4.46564C27.6818 5.12136 26.917 6.05337 26.4653 7.1438C26.0136 8.23423 25.8954 9.43411 26.1257 10.5917C26.356 11.7493 26.9243 12.8126 27.7589 13.6472C28.5935 14.4818 29.6568 15.0501 30.8144 15.2804C31.972 15.5106 33.1719 15.3925 34.2623 14.9408C35.3527 14.4891 36.2847 13.7243 36.9404 12.7429C37.5962 11.7615 37.9462 10.6078 37.9462 9.42749C37.9462 7.84479 37.3174 6.32691 36.1983 5.20778C35.0792 4.08864 33.5613 3.45992 31.9786 3.45992V3.45992Z" fill="#1D1D1B"/>
<path d="M41.1429 43.5892H39.4461C39.2167 43.5892 38.9967 43.4981 38.8345 43.3359C38.6723 43.1737 38.5812 42.9537 38.5812 42.7243C38.5812 42.4949 38.6723 42.275 38.8345 42.1128C38.9967 41.9506 39.2167 41.8595 39.4461 41.8595H41.1421C42.0288 41.8585 42.8789 41.5059 43.5059 40.8789C44.1329 40.2519 44.4856 39.4017 44.4865 38.515V24.9081C44.4851 23.8905 44.0805 22.915 43.3612 22.1952C42.6419 21.4755 41.6666 21.0702 40.6491 21.0681H23.3518C22.3336 21.0693 21.3575 21.4742 20.6375 22.194C19.9174 22.9139 19.5123 23.8899 19.5109 24.9081V38.5194C19.513 39.4058 19.8665 40.2552 20.4939 40.8813C21.1214 41.5075 21.9715 41.8592 22.8579 41.8595H24.4925C24.7219 41.8595 24.9419 41.9506 25.1041 42.1128C25.2663 42.275 25.3574 42.4949 25.3574 42.7243C25.3574 42.9537 25.2663 43.1737 25.1041 43.3359C24.9419 43.4981 24.7219 43.5892 24.4925 43.5892H22.8579C21.5126 43.5878 20.2228 43.0528 19.2715 42.1015C18.3202 41.1502 17.7852 39.8604 17.7838 38.515V24.9081C17.7856 23.4318 18.3728 22.0164 19.4165 20.9723C20.4603 19.9283 21.8755 19.3407 23.3518 19.3384H40.6491C42.1259 19.34 43.5417 19.9273 44.586 20.9714C45.6303 22.0156 46.2178 23.4313 46.2197 24.9081V38.5194C46.2172 39.8644 45.6813 41.1535 44.7295 42.1039C43.7778 43.0544 42.4879 43.5885 41.1429 43.5892Z" fill="#1D1D1B"/>
<path d="M35.7077 62.2698C34.4955 62.2685 33.3332 61.7863 32.476 60.9291C31.6188 60.0718 31.1366 58.9096 31.1352 57.6973V43.2861C31.1352 43.0567 31.2263 42.8367 31.3885 42.6745C31.5507 42.5123 31.7707 42.4212 32.0001 42.4212C32.2294 42.4212 32.4494 42.5123 32.6116 42.6745C32.7738 42.8367 32.8649 43.0567 32.8649 43.2861V57.6973C32.8649 58.4513 33.1644 59.1743 33.6976 59.7075C34.2307 60.2406 34.9538 60.5401 35.7077 60.5401C36.4617 60.5401 37.1848 60.2406 37.7179 59.7075C38.2511 59.1743 38.5506 58.4513 38.5506 57.6973V30.3788C38.5506 30.1494 38.6417 29.9295 38.8039 29.7673C38.9661 29.6051 39.1861 29.5139 39.4154 29.5139C39.6448 29.5139 39.8648 29.6051 40.027 29.7673C40.1892 29.9295 40.2803 30.1494 40.2803 30.3788V57.6973C40.2789 58.9096 39.7967 60.0718 38.9395 60.9291C38.0823 61.7863 36.92 62.2685 35.7077 62.2698Z" fill="#1D1D1B"/>
<path d="M28.2932 62.2698C27.081 62.2685 25.9187 61.7863 25.0615 60.9291C24.2043 60.0718 23.7221 58.9096 23.7207 57.6973V30.3788C23.7207 30.1494 23.8118 29.9295 23.974 29.7673C24.1362 29.6051 24.3562 29.5139 24.5856 29.5139C24.8149 29.5139 25.0349 29.6051 25.1971 29.7673C25.3593 29.9295 25.4504 30.1494 25.4504 30.3788V57.6973C25.4504 58.4513 25.7499 59.1743 26.2831 59.7075C26.8162 60.2406 27.5393 60.5401 28.2932 60.5401C29.0472 60.5401 29.7703 60.2406 30.3034 59.7075C30.8365 59.1743 31.1361 58.4513 31.1361 57.6973V43.2861C31.1361 43.0567 31.2272 42.8367 31.3894 42.6745C31.5516 42.5123 31.7715 42.4212 32.0009 42.4212C32.2303 42.4212 32.4503 42.5123 32.6125 42.6745C32.7747 42.8367 32.8658 43.0567 32.8658 43.2861V57.6973C32.8644 58.9096 32.3822 60.0718 31.525 60.9291C30.6678 61.7863 29.5055 62.2685 28.2932 62.2698V62.2698Z" fill="#1D1D1B"/>
</svg>
