<svg width="64" height="64" viewBox="0 0 64 64" fill="none" xmlns="http://www.w3.org/2000/svg">
<g clip-path="url(#clip0_2_142)">
<path d="M19.9749 37.1174C20.5045 37.1184 20.9545 36.7304 21.0316 36.206C21.1086 35.6821 20.7894 35.1811 20.2821 35.029C18.0786 34.3681 15.6861 31.949 13.7159 28.3951C13.4305 27.8795 12.7816 27.6931 12.266 27.9785C11.7504 28.2639 11.564 28.9133 11.8494 29.4284C14.0893 33.4656 16.937 36.255 19.6676 37.0716C19.7671 37.1018 19.8707 37.1174 19.9749 37.1174Z" fill="#1D1D1B"/>
<path d="M30.9891 13.4134C31.6489 14.8993 31.9932 16.5059 32.001 18.1318C32.001 18.7209 32.4786 19.1984 33.0676 19.1984C33.6566 19.1984 34.1342 18.7209 34.1342 18.1318C34.1269 16.2138 33.7222 14.3181 32.9463 12.564C31.9578 10.2511 30.3818 8.23618 28.3747 6.7191C27.9034 6.366 27.2352 6.46131 26.8816 6.93263C26.5279 7.40395 26.6238 8.07265 27.0946 8.42575C28.8059 9.71993 30.148 11.4396 30.9891 13.4134Z" fill="#1D1D1B"/>
<path d="M21.3365 6.39942C22.3088 6.40307 23.2739 6.56712 24.1931 6.88481C24.7509 7.07438 25.3571 6.77596 25.5466 6.21819C25.7362 5.66041 25.4378 5.0542 24.88 4.86463C23.7395 4.47195 22.5427 4.26988 21.3365 4.26624C20.7475 4.26624 20.2699 4.74381 20.2699 5.33283C20.2699 5.92185 20.7475 6.39942 21.3365 6.39942Z" fill="#1D1D1B"/>
<path d="M41.6154 43.5653C39.412 42.9039 37.0194 40.4848 35.0493 36.9309C34.7639 36.4153 34.1149 36.2288 33.5994 36.5142C33.0838 36.7996 32.8973 37.4491 33.1827 37.9647C35.4227 42.0014 38.2704 44.7907 41.0009 45.6074C41.3681 45.7245 41.7696 45.6344 42.0513 45.372C42.3331 45.1095 42.4513 44.7152 42.3612 44.3413C42.2711 43.9668 41.9857 43.67 41.6154 43.5653V43.5653Z" fill="#1D1D1B"/>
<path d="M49.7076 15.2522C49.2363 14.8991 48.5681 14.9944 48.2145 15.4657C47.8609 15.937 47.9567 16.6057 48.4275 16.9588C50.1368 18.252 51.4789 19.969 52.32 21.9397C52.9814 23.4277 53.3267 25.0369 53.3339 26.6649C53.3339 27.254 53.8115 27.7315 54.4005 27.7315C54.9896 27.7315 55.4671 27.254 55.4671 26.6649C55.4598 24.7468 55.0552 22.8511 54.2792 21.0971C53.2907 18.7842 51.7148 16.7693 49.7076 15.2522Z" fill="#1D1D1B"/>
<path d="M46.2111 13.3973C45.0705 13.0046 43.8738 12.8026 42.6676 12.7989C42.0786 12.7989 41.601 13.2765 41.601 13.8655C41.601 14.4545 42.0786 14.9321 42.6676 14.9321C43.6399 14.9357 44.605 15.0998 45.5242 15.4175C46.0819 15.607 46.6881 15.3086 46.8777 14.7509C47.0673 14.1931 46.7689 13.5869 46.2111 13.3973Z" fill="#1D1D1B"/>
<path d="M42.653 8.53274H42.6358C40.4844 8.54263 38.3595 9.00562 36.3993 9.8915C33.6573 4.00701 27.8254 0.177592 21.3357 0C12.2452 0 4.27025 8.47285 4.27025 18.1321C4.27025 26.4867 10.0042 37.8427 17.5376 40.8206L17.0845 43.5553C17.0329 43.8647 17.1204 44.1808 17.323 44.4198C17.5251 44.6589 17.8229 44.7969 18.1359 44.7969H19.8556L19.1801 46.8233C18.4448 49.0101 18.7682 51.4152 20.0561 53.3296L20.8483 54.5176C21.7659 55.8852 21.9961 57.6017 21.4711 59.1631L20.328 62.5951C20.1415 63.155 20.4446 63.7591 21.004 63.9456C21.5638 64.1315 22.1685 63.8289 22.3544 63.269L23.4913 59.8359C24.2272 57.6491 23.9038 55.2441 22.6158 53.3296L21.8232 52.1417C20.9045 50.7741 20.6738 49.0575 21.1993 47.4962L22.1039 44.7969H24.5355C24.849 44.7969 25.1464 44.6589 25.349 44.4198C25.5516 44.1808 25.6385 43.8647 25.5875 43.5553L25.1339 40.8227C26.4348 40.3003 27.6488 39.5837 28.7347 38.6968C30.9746 43.1928 34.5093 47.6404 38.8673 49.3684L38.4163 52.088C38.3647 52.3974 38.4522 52.7135 38.6548 52.9526C38.8569 53.1916 39.1548 53.3296 39.4678 53.3296H41.1875L40.512 55.356C39.7766 57.5429 40.1 59.9479 41.388 61.8624L42.1791 63.0482C42.2645 63.1763 42.3436 63.3086 42.4171 63.4419C42.604 63.7851 42.9639 63.9982 43.3545 63.9976C43.5326 63.9976 43.7076 63.9523 43.8633 63.8664C44.3805 63.5846 44.5716 62.9373 44.2899 62.4201C44.1831 62.2326 44.0768 62.0478 43.955 61.8665L43.1629 60.6786C42.2436 59.3115 42.0135 57.5944 42.5384 56.0336L43.4357 53.3296H45.8673C46.1809 53.3296 46.4782 53.1916 46.6808 52.9526C46.8834 52.7135 46.9704 52.3974 46.9194 52.088L46.471 49.3877C49.5259 48.1951 52.4325 45.5828 54.8975 41.7356C57.8405 37.2287 59.5112 32.0103 59.7331 26.632C59.7107 16.9842 51.7336 8.53274 42.653 8.53274ZM6.40343 18.1321C6.40343 9.60871 13.3811 2.13318 21.3357 2.13318C27.0624 2.13318 32.3881 5.8949 34.9061 11.7205C35.7977 13.7412 36.2612 15.9239 36.268 18.1321C36.2659 18.9169 36.2144 19.7002 36.1133 20.4788C35.9899 21.41 35.8118 22.3333 35.58 23.2442C34.3885 28.1366 31.8954 32.6154 28.366 36.2063C27.0343 37.5333 25.411 38.5301 23.6257 39.1181C22.5132 39.4634 21.3368 39.5525 20.1848 39.3785C19.7968 39.3197 19.414 39.2322 19.0385 39.1171C12.0405 37.011 6.40343 25.918 6.40343 18.1321ZM19.3947 42.6637L19.5973 41.4403C19.6603 41.4518 19.7223 41.4554 19.7848 41.4659C19.8478 41.4768 19.9405 41.4862 20.0186 41.4966C20.4493 41.5596 20.8837 41.5929 21.3191 41.5971H21.3529C21.7878 41.5935 22.2216 41.5601 22.6523 41.4982C22.7299 41.4872 22.8091 41.4799 22.8867 41.4669C22.9648 41.4544 23.0116 41.4534 23.0747 41.4414L23.2773 42.6637H19.3947ZM44.6091 51.1964H40.7266L40.9292 49.9731C41.0495 49.9944 41.1703 50.0049 41.2895 50.022C41.3901 50.0361 41.489 50.0507 41.5895 50.0627C41.9473 50.1043 42.3072 50.1267 42.6676 50.1298H42.6967C43.2686 50.1283 43.8399 50.0767 44.4029 49.9762L44.6091 51.1964ZM53.1054 40.5836C50.6983 44.336 47.7979 46.8098 44.9002 47.6618C44.5648 47.7618 44.2232 47.8394 43.8774 47.8941L43.7342 47.9144C43.0233 48.0154 42.3015 48.0154 41.5906 47.9144C41.501 47.9019 41.4145 47.8805 41.326 47.8644C41.0344 47.8149 40.7453 47.7493 40.461 47.668C36.1316 46.4285 32.55 41.7872 30.3861 37.2156C30.4497 37.1516 30.5106 37.0792 30.5726 37.0141C30.7059 36.874 30.8371 36.7313 30.9684 36.5876C31.1241 36.4152 31.2783 36.2402 31.4314 36.0616C31.5611 35.909 31.6881 35.7543 31.8152 35.5965C31.9647 35.4132 32.1115 35.2262 32.2568 35.0356C32.3818 34.871 32.5058 34.7049 32.6276 34.5361C32.7703 34.3424 32.9089 34.1455 33.0438 33.9466C33.1646 33.7716 33.2828 33.5956 33.4 33.4133C33.5333 33.2107 33.6635 33.0045 33.7927 32.7967C33.9067 32.6134 34.0197 32.4285 34.1307 32.241C34.2557 32.0275 34.377 31.8145 34.4968 31.6009C34.603 31.4077 34.7098 31.2161 34.8166 31.0218C34.9327 30.8083 35.0447 30.5843 35.1556 30.3651C35.2561 30.1667 35.3551 29.9693 35.4514 29.7698C35.5577 29.5448 35.6644 29.3183 35.7649 29.0922C35.8555 28.8907 35.9472 28.6902 36.0347 28.4876C36.1326 28.2585 36.2253 28.0267 36.3196 27.7955C36.4003 27.5918 36.4836 27.3892 36.5612 27.1851C36.6498 26.9507 36.732 26.7158 36.8154 26.4804C36.8878 26.2768 36.9612 26.0727 37.0289 25.868C37.1075 25.6289 37.1789 25.3915 37.2518 25.1514C37.3133 24.9498 37.3763 24.7483 37.4341 24.5467C37.5023 24.3046 37.5622 24.0624 37.6237 23.8192C37.6742 23.6218 37.7304 23.4244 37.7731 23.227C37.8309 22.9786 37.8799 22.7333 37.9288 22.487C37.9674 22.2969 38.0101 22.1063 38.0439 21.9172C38.0898 21.6594 38.1252 21.4053 38.1627 21.1506C38.1882 20.9756 38.22 20.7996 38.2413 20.6256C38.2767 20.3444 38.2991 20.0668 38.3226 19.7898C38.3351 19.6466 38.3533 19.5018 38.3632 19.3627C38.3897 18.9471 38.4043 18.5352 38.4043 18.131C38.4043 17.5519 38.3705 16.9738 38.3137 16.3989C38.2944 16.2088 38.2606 16.0202 38.2361 15.8312C38.1851 15.4453 38.1293 15.0604 38.0538 14.6776C38.0101 14.4568 37.9544 14.237 37.9023 14.0173C37.8179 13.6652 37.7273 13.3152 37.6226 12.9668C37.5544 12.7423 37.481 12.5184 37.4039 12.2955C37.3497 12.1367 37.308 11.9757 37.2492 11.819C38.9439 11.0596 40.7797 10.6664 42.6368 10.6659H42.6519C50.5967 10.6659 57.5842 18.1248 57.5999 26.6351C57.3837 31.6041 55.8312 36.423 53.1054 40.5836Z" fill="#1D1D1B"/>
</g>
<defs>
<clipPath id="clip0_2_142">
<rect width="64" height="64" fill="white"/>
</clipPath>
</defs>
</svg>
